# xmcd
#
# Track frame offsets:
#	155
#	16852
#	28237
#	38805
#	51217
#	63975
#	87267
#	102977
#	114242
#	125135
#	136222
#	146602
#	157532
#	170392
#
# Disc length: 2420 seconds
#
# Revision: 0
# Processed by: cddbd v1.4PL0 Copyright (c) Steve Scherf et al.
# Submitted via: dBpowerAMP V4.0
#
DISCID=b209720e
DTITLE=Johnny Copeland - The Copeland Collection
DYEAR=1900
DGENRE=
TTITLE0=Love Song
TTITLE1=May The Best Man Win
TTITLE2=Up Your Sleeve
TTITLE3=Heebie Jeebies
TTITLE4=Let Me Cry
TTITLE5=Rock Me Baby
TTITLE6=Ghetto Child
TTITLE7=Mamma Told Me
TTITLE8=House Of So Many Tears
TTITLE9=Please Let Me Know (unissued version)
TTITLE10=Proving Time
TTITLE11=Soul Power
TTITLE12=Daily Bread
TTITLE13=Coming To See About You
EXTD=
EXTT0=
EXTT1=
EXTT2=
EXTT3=
EXTT4=
EXTT5=
EXTT6=
EXTT7=
EXTT8=
EXTT9=
EXTT10=
EXTT11=
EXTT12=
EXTT13=
PLAYORDER=
